<svg width="13" height="13" viewBox="0 0 13 13" fill="none" xmlns="http://www.w3.org/2000/svg">
<path fill-rule="evenodd" clip-rule="evenodd" d="M10.7229 0.219623C11.0158 -0.0732444 11.4907 -0.0732022 11.7836 0.219717C12.0764 0.512636 12.0764 0.98751 11.7835 1.28038L7.06235 6.00065L11.7835 10.7209C12.0764 11.0138 12.0764 11.4887 11.7836 11.7816C11.4907 12.0745 11.0158 12.0746 10.7229 11.7817L6.0016 7.06122L1.28028 11.7817C0.987364 12.0746 0.51249 12.0745 0.219622 11.7816C-0.0732442 11.4887 -0.0732023 11.0138 0.219717 10.7209L4.94084 6.00065L0.219727 1.28038C-0.0731918 0.98751 -0.0732341 0.512636 0.219633 0.219717C0.5125 -0.0732022 0.987374 -0.0732444 1.28029 0.219623L6.0016 4.94009L10.7229 0.219623Z" fill="white"/>
<path fill-rule="evenodd" clip-rule="evenodd" d="M10.7229 0.219623C11.0158 -0.0732444 11.4907 -0.0732022 11.7836 0.219717C12.0764 0.512636 12.0764 0.98751 11.7835 1.28038L7.06235 6.00065L11.7835 10.7209C12.0764 11.0138 12.0764 11.4887 11.7836 11.7816C11.4907 12.0745 11.0158 12.0746 10.7229 11.7817L6.0016 7.06122L1.28028 11.7817C0.987364 12.0746 0.51249 12.0745 0.219622 11.7816C-0.0732442 11.4887 -0.0732023 11.0138 0.219717 10.7209L4.94084 6.00065L0.219727 1.28038C-0.0731918 0.98751 -0.0732341 0.512636 0.219633 0.219717C0.5125 -0.0732022 0.987374 -0.0732444 1.28029 0.219623L6.0016 4.94009L10.7229 0.219623Z" fill="url(#paint0_linear_56_407)"/>
<defs>
<linearGradient id="paint0_linear_56_407" x1="-0.315468" y1="16.27" x2="11.9287" y2="12.6571" gradientUnits="userSpaceOnUse">
<stop stop-color="#0D748B"/>
<stop offset="1" stop-color="#1A0B73"/>
</linearGradient>
</defs>
</svg>
