<!-- Generated by IcoMoon.io -->
<svg version="1.1" xmlns="http://www.w3.org/2000/svg" width="1676" height="1024" viewBox="0 0 1676 1024">
<title>menu</title>
<g id="icomoon-ignore">
</g>
<path d="M80.727 93.091c0-38.56 31.258-69.818 69.818-69.818h1374.544c38.558 0 69.818 31.259 69.818 69.818s-31.26 69.818-69.818 69.818h-1374.544c-38.56 0-69.818-31.259-69.818-69.818zM80.727 523.636c0-38.559 31.258-69.818 69.818-69.818h1374.544c38.558 0 69.818 31.259 69.818 69.818s-31.26 69.818-69.818 69.818h-1374.544c-38.56 0-69.818-31.259-69.818-69.818zM80.727 954.182c0-38.559 31.258-69.818 69.818-69.818h1374.544c38.558 0 69.818 31.259 69.818 69.818s-31.26 69.818-69.818 69.818h-1374.544c-38.56 0-69.818-31.26-69.818-69.818z"></path>
<path d="M80.727 93.091c0-38.56 31.258-69.818 69.818-69.818h1374.544c38.558 0 69.818 31.259 69.818 69.818s-31.26 69.818-69.818 69.818h-1374.544c-38.56 0-69.818-31.259-69.818-69.818zM80.727 523.636c0-38.559 31.258-69.818 69.818-69.818h1374.544c38.558 0 69.818 31.259 69.818 69.818s-31.26 69.818-69.818 69.818h-1374.544c-38.56 0-69.818-31.259-69.818-69.818zM80.727 954.182c0-38.559 31.258-69.818 69.818-69.818h1374.544c38.558 0 69.818 31.259 69.818 69.818s-31.26 69.818-69.818 69.818h-1374.544c-38.56 0-69.818-31.26-69.818-69.818z"></path>
</svg>
